HIERARCHY
ROOT Hips
{
	OFFSET 0.000000 83.214638 0.000000
	CHANNELS 6 Xposition Yposition Zposition Xrotation Yrotation Zrotation
	JOINT Pelvis
	{
		OFFSET 0.000000 0.000000 0.000000
		CHANNELS 3 Xrotation Yrotation Zrotation
		JOINT LeftUpLeg
		{
			OFFSET 8.479700 -4.795502 -0.379100
			CHANNELS 3 Xrotation Yrotation Zrotation
			JOINT LeftLeg
			{
				OFFSET 0.024144 -32.555107 0.112900
				CHANNELS 3 Xrotation Yrotation Zrotation
				JOINT LeftFoot
				{
					OFFSET -0.024144 -32.638630 -3.012600
					CHANNELS 3 Xrotation Yrotation Zrotation
					JOINT LeftToeBase
					{
						OFFSET 0.970200 -13.225400 11.864200
						CHANNELS 3 Xrotation Yrotation Zrotation
						End Site
						{
							OFFSET 0.000000 12.319262 0.000000
						}
					}
					JOINT LFootTongue
					{
						OFFSET 1.142400 -1.059800 6.665200
						CHANNELS 3 Xrotation Yrotation Zrotation
						End Site
						{
							OFFSET 0.000000 12.319262 0.000000
						}
					}
				}
				JOINT LeftPantLeg
				{
					OFFSET 0.918482 -16.533964 -2.284700
					CHANNELS 3 Xrotation Yrotation Zrotation
					End Site
					{
						OFFSET 0.350399 24.744368 0.000000
					}
				}
			}
		}
		JOINT RightUpLeg
		{
			OFFSET -8.479700 -4.795502 -0.379100
			CHANNELS 3 Xrotation Yrotation Zrotation
			JOINT RightLeg
			{
				OFFSET -0.023144 -32.555092 0.112900
				CHANNELS 3 Xrotation Yrotation Zrotation
				JOINT RightFoot
				{
					OFFSET 0.023144 -32.638641 -3.012700
					CHANNELS 3 Xrotation Yrotation Zrotation
					JOINT RightToeBase
					{
						OFFSET -0.970200 -13.225400 11.864200
						CHANNELS 3 Xrotation Yrotation Zrotation
						End Site
						{
							OFFSET 0.000000 12.319244 0.000000
						}
					}
					JOINT RFootTongue
					{
						OFFSET -1.142200 -1.059800 6.665200
						CHANNELS 3 Xrotation Yrotation Zrotation
						End Site
						{
							OFFSET 0.000000 12.319243 0.000000
						}
					}
				}
				JOINT RightPantLeg
				{
					OFFSET -0.919482 -16.533978 -2.284800
					CHANNELS 3 Xrotation Yrotation Zrotation
					End Site
					{
						OFFSET -0.350400 24.744419 0.000000
					}
				}
			}
		}
	}
	JOINT Spine
	{
		OFFSET 0.000000 7.722000 1.166200
		CHANNELS 3 Xrotation Yrotation Zrotation
		JOINT Spine1
		{
			OFFSET 0.000000 12.024101 0.248800
			CHANNELS 3 Xrotation Yrotation Zrotation
			JOINT Spine2
			{
				OFFSET 0.000000 11.502998 -0.491200
				CHANNELS 3 Xrotation Yrotation Zrotation
				JOINT Neck
				{
					OFFSET 0.000000 18.430702 -3.123100
					CHANNELS 3 Xrotation Yrotation Zrotation
					JOINT Head
					{
						OFFSET 0.000000 9.051102 1.034000
						CHANNELS 3 Xrotation Yrotation Zrotation
						JOINT HairB
						{
							OFFSET 0.208400 24.786102 24.822300
							CHANNELS 3 Xrotation Yrotation Zrotation
							End Site
							{
								OFFSET 0.000000 32.263779 0.000000
							}
						}
						JOINT HairA
						{
							OFFSET -7.081100 24.428299 23.196600
							CHANNELS 3 Xrotation Yrotation Zrotation
							End Site
							{
								OFFSET 0.000000 32.263779 0.000000
							}
						}
						JOINT Hat
						{
							OFFSET 16.728800 15.048294 -15.439601
							CHANNELS 3 Xrotation Yrotation Zrotation
							End Site
							{
								OFFSET 0.000000 32.263779 0.000000
							}
						}
					}
				}
				JOINT LeftShoulder
				{
					OFFSET 6.197800 13.665199 -4.064700
					CHANNELS 3 Xrotation Yrotation Zrotation
					JOINT LeftArm
					{
						OFFSET 7.778100 -0.187103 -1.709300
						CHANNELS 3 Xrotation Yrotation Zrotation
						JOINT LeftForeArm
						{
							OFFSET 22.049376 0.000000 0.000000
							CHANNELS 3 Xrotation Yrotation Zrotation
							JOINT LeftHand
							{
								OFFSET 23.009392 0.000000 0.000000
								CHANNELS 3 Xrotation Yrotation Zrotation
								JOINT LeftHandThumb1
								{
									OFFSET 3.507191 -2.063065 3.133727
									CHANNELS 3 Xrotation Yrotation Zrotation
									JOINT LeftHandThumb2
									{
										OFFSET 3.101337 -1.790558 1.790558
										CHANNELS 3 Xrotation Yrotation Zrotation
										JOINT LeftHandThumb3
										{
											OFFSET 3.058640 -1.765907 1.765906
											CHANNELS 3 Xrotation Yrotation Zrotation
											End Site
											{
												OFFSET -0.415260 3.926476 -0.049563
											}
										}
									}
								}
								JOINT LeftHandIndex1
								{
									OFFSET 11.334419 -0.901459 3.706815
									CHANNELS 3 Xrotation Yrotation Zrotation
									JOINT LeftHandIndex2
									{
										OFFSET 3.283112 0.000000 0.000000
										CHANNELS 3 Xrotation Yrotation Zrotation
										JOINT LeftHandIndex3
										{
											OFFSET 3.323853 0.000000 0.000000
											CHANNELS 3 Xrotation Yrotation Zrotation
											End Site
											{
												OFFSET -1.135597 3.097809 0.402452
											}
										}
									}
								}
								JOINT LeftHandMiddle1
								{
									OFFSET 11.335861 0.000000 0.000000
									CHANNELS 3 Xrotation Yrotation Zrotation
									JOINT LeftHandMiddle2
									{
										OFFSET 3.410492 0.000000 0.000000
										CHANNELS 3 Xrotation Yrotation Zrotation
										JOINT LeftHandMiddle3
										{
											OFFSET 3.312172 0.000000 0.000000
											CHANNELS 3 Xrotation Yrotation Zrotation
											End Site
											{
												OFFSET -1.150200 3.080154 0.400270
											}
										}
									}
								}
								JOINT LeftHandRing1
								{
									OFFSET 11.514786 -0.013176 -3.003090
									CHANNELS 3 Xrotation Yrotation Zrotation
									JOINT LeftHandRing2
									{
										OFFSET 3.053307 0.000000 0.000000
										CHANNELS 3 Xrotation Yrotation Zrotation
										JOINT LeftHandRing3
										{
											OFFSET 3.295807 0.000000 0.000000
											CHANNELS 3 Xrotation Yrotation Zrotation
											End Site
											{
												OFFSET -1.281006 3.013344 0.375733
											}
										}
									}
								}
								JOINT LeftHandPinky1
								{
									OFFSET 10.518692 -0.960396 -5.730441
									CHANNELS 3 Xrotation Yrotation Zrotation
									JOINT LeftHandPinky2
									{
										OFFSET 2.861649 0.000000 0.000000
										CHANNELS 3 Xrotation Yrotation Zrotation
										JOINT LeftHandPinky3
										{
											OFFSET 2.863380 0.000000 0.000000
											CHANNELS 3 Xrotation Yrotation Zrotation
											End Site
											{
												OFFSET -0.843597 2.711159 0.369971
											}
										}
									}
								}
							}
							JOINT LSleeve
							{
								OFFSET 6.676277 -0.344902 -1.011730
								CHANNELS 3 Xrotation Yrotation Zrotation
								End Site
								{
									OFFSET 0.000000 14.885353 0.000000
								}
							}
						}
					}
				}
				JOINT RightShoulder
				{
					OFFSET -6.197800 13.665199 -4.064700
					CHANNELS 3 Xrotation Yrotation Zrotation
					JOINT RightArm
					{
						OFFSET -7.778100 -0.187103 -1.709300
						CHANNELS 3 Xrotation Yrotation Zrotation
						JOINT RightForeArm
						{
							OFFSET -22.049376 0.000000 0.000000
							CHANNELS 3 Xrotation Yrotation Zrotation
							JOINT RightHand
							{
								OFFSET -23.009392 0.000000 0.000000
								CHANNELS 3 Xrotation Yrotation Zrotation
								JOINT RightHandThumb1
								{
									OFFSET -3.507191 -2.063065 3.133727
									CHANNELS 3 Xrotation Yrotation Zrotation
									JOINT RightHandThumb2
									{
										OFFSET -3.101337 -1.790558 1.790558
										CHANNELS 3 Xrotation Yrotation Zrotation
										JOINT RightHandThumb3
										{
											OFFSET -3.058640 -1.765907 1.765906
											CHANNELS 3 Xrotation Yrotation Zrotation
											End Site
											{
												OFFSET 0.415260 3.926476 -0.049563
											}
										}
									}
								}
								JOINT RightHandIndex1
								{
									OFFSET -11.334419 -0.901459 3.706815
									CHANNELS 3 Xrotation Yrotation Zrotation
									JOINT RightHandIndex2
									{
										OFFSET -3.283112 0.000000 0.000000
										CHANNELS 3 Xrotation Yrotation Zrotation
										JOINT RightHandIndex3
										{
											OFFSET -3.323853 0.000000 0.000000
											CHANNELS 3 Xrotation Yrotation Zrotation
											End Site
											{
												OFFSET 1.135597 3.097809 0.402452
											}
										}
									}
								}
								JOINT RightHandMiddle1
								{
									OFFSET -11.335861 0.000000 0.000000
									CHANNELS 3 Xrotation Yrotation Zrotation
									JOINT RightHandMiddle2
									{
										OFFSET -3.410492 0.000000 0.000000
										CHANNELS 3 Xrotation Yrotation Zrotation
										JOINT RightHandMiddle3
										{
											OFFSET -3.312172 0.000000 0.000000
											CHANNELS 3 Xrotation Yrotation Zrotation
											End Site
											{
												OFFSET 1.150200 3.080154 0.400270
											}
										}
									}
								}
								JOINT RightHandRing1
								{
									OFFSET -11.514786 -0.013176 -3.003090
									CHANNELS 3 Xrotation Yrotation Zrotation
									JOINT RightHandRing2
									{
										OFFSET -3.053307 0.000000 0.000000
										CHANNELS 3 Xrotation Yrotation Zrotation
										JOINT RightHandRing3
										{
											OFFSET -3.295807 0.000000 0.000000
											CHANNELS 3 Xrotation Yrotation Zrotation
											End Site
											{
												OFFSET 1.281006 3.013344 0.375733
											}
										}
									}
								}
								JOINT RightHandPinky1
								{
									OFFSET -10.518692 -0.960396 -5.730441
									CHANNELS 3 Xrotation Yrotation Zrotation
									JOINT RightHandPinky2
									{
										OFFSET -2.861649 0.000000 0.000000
										CHANNELS 3 Xrotation Yrotation Zrotation
										JOINT RightHandPinky3
										{
											OFFSET -2.863380 0.000000 0.000000
											CHANNELS 3 Xrotation Yrotation Zrotation
											End Site
											{
												OFFSET 0.843597 2.711159 0.369971
											}
										}
									}
								}
							}
							JOINT RSleeve
							{
								OFFSET -6.676277 -0.344902 -1.011730
								CHANNELS 3 Xrotation Yrotation Zrotation
								End Site
								{
									OFFSET 0.000000 14.885353 0.000000
								}
							}
						}
					}
				}
				JOINT Backpack
				{
					OFFSET 0.000000 -2.471497 36.677502
					CHANNELS 3 Xrotation Yrotation Zrotation
					End Site
					{
						OFFSET 0.000000 20.427315 0.000000
					}
				}
				JOINT Hood
				{
					OFFSET 0.000000 18.754097 -10.431000
					CHANNELS 3 Xrotation Yrotation Zrotation
					JOINT Hood1
					{
						OFFSET 0.000000 -5.011002 -7.685901
						CHANNELS 3 Xrotation Yrotation Zrotation
						End Site
						{
							OFFSET 0.000000 9.175140 0.000000
						}
					}
				}
				JOINT LHoodieString
				{
					OFFSET 5.250500 16.397697 3.089900
					CHANNELS 3 Xrotation Yrotation Zrotation
					JOINT LHoodieString1
					{
						OFFSET 0.257700 -6.364304 3.694600
						CHANNELS 3 Xrotation Yrotation Zrotation
						JOINT LHoodieString2
						{
							OFFSET 0.000000 -9.643799 2.679100
							CHANNELS 3 Xrotation Yrotation Zrotation
							End Site
							{
								OFFSET 0.000000 10.009018 0.000000
							}
						}
					}
				}
				JOINT RHoodieString
				{
					OFFSET -5.250500 16.397697 3.089900
					CHANNELS 3 Xrotation Yrotation Zrotation
					JOINT RHoodieString1
					{
						OFFSET -0.257700 -6.364304 3.694600
						CHANNELS 3 Xrotation Yrotation Zrotation
						JOINT RHoodieString2
						{
							OFFSET 0.000000 -9.643799 2.679100
							CHANNELS 3 Xrotation Yrotation Zrotation
							End Site
							{
								OFFSET 0.000000 10.009018 0.000000
							}
						}
					}
				}
			}
			JOINT LBackpack_Strap
			{
				OFFSET 15.223200 -7.719803 -6.610900
				CHANNELS 3 Xrotation Yrotation Zrotation
				End Site
				{
					OFFSET 0.000000 16.040596 0.000000
				}
			}
			JOINT RBackpack_Strap
			{
				OFFSET -15.223000 -7.719803 -6.610900
				CHANNELS 3 Xrotation Yrotation Zrotation
				End Site
				{
					OFFSET 0.000000 16.040596 0.000000
				}
			}
		}
	}
	JOINT BoyFacialAnim_Joint
	{
		OFFSET 1.000000 -82.208099 -1.550900
		CHANNELS 3 Xrotation Yrotation Zrotation
		End Site
		{
			OFFSET 0.000000 30.012791 0.000000
		}
	}
}
MOTION
Frames: 4
Frame Time: 0.033333
-0.045223 46.757019 -31.664463 -18.314039 -2.299866 0.365870 -0.000001 0.000000 -0.000000 -76.667637 0.318343 9.955475 101.993500 7.727414 2.569431 -6.388059 9.179783 -3.413705 0.000000 -0.000000 -0.000000 0.000000 -0.000000 -0.000000 0.000000 0.000000 0.000000 -76.661456 4.795454 -9.858278 100.851322 -6.167133 -4.504643 -4.363965 -4.795501 7.872464 -0.000000 0.000000 0.000000 -0.000000 0.000000 0.000000 0.000000 -0.000001 0.000001 3.819585 -0.202905 -2.022306 15.939121 -0.765258 -1.143905 15.921714 -0.724599 -1.393357 -11.165239 -0.019886 1.427956 -6.185189 1.980910 4.456438 -0.000000 0.000000 -0.000000 -0.000000 0.000000 -0.000000 -0.000000 0.000000 -0.000000 0.408134 8.238046 -11.098995 -26.064372 -44.716542 -77.974198 -0.047045 -92.890675 -0.046946 10.050366 -11.423474 32.829888 0.043061 3.210874 -2.318975 -7.059602 7.294304 13.761858 -0.000001 0.000000 0.000001 -0.000015 0.000004 0.000016 0.000019 0.000003 -0.000063 -0.000001 -0.000002 -0.000002 -0.000001 -0.001916 0.016003 -0.000009 0.001922 -0.016061 -0.000001 0.000000 0.000000 -0.000002 0.000010 0.000019 0.000006 -0.000002 -0.000060 -0.000000 -0.000001 -0.000004 -0.018088 4.054255 0.511067 -0.018087 -4.054247 -0.511112 -0.000001 -0.000001 0.000001 -0.000001 0.000002 0.000005 0.765162 -1.368138 10.773798 -29.604092 37.558811 78.518707 -0.000787 86.494702 0.000775 -10.572541 23.653387 -10.237660 -21.141116 -11.985583 -22.103749 4.637205 -8.634136 -0.225408 -0.000000 -0.000000 -0.000001 0.064598 0.947617 -7.800552 0.000015 0.000008 0.000050 -0.000002 -0.000002 0.000001 0.064602 0.947611 -7.800565 0.000013 0.000017 0.000045 -0.000001 0.000003 -0.000003 0.064601 0.947613 -7.800546 0.000006 0.000004 0.000040 0.000002 0.000002 0.000004 0.064593 0.947605 -7.800558 0.000010 0.000007 0.000038 0.000000 -0.000000 0.000000 -0.000001 -0.000001 -0.000001 0.000002 -0.000000 -0.000000 0.000002 -0.000000 -0.000000 0.000002 -0.000000 -0.000000 0.000002 -0.000000 -0.000000 0.000002 -0.000000 0.000000 0.000000 0.000000 -0.000000 0.000002 -0.000000 -0.000000 0.000002 -0.000000 0.000000 0.000000 0.000000 -0.000000 -0.000000 0.000000 -0.000000 -0.000000 0.000000 -0.000000 -0.000001 0.000000 -0.000000 
-0.050856 46.755898 -31.664721 -18.302402 -2.195697 0.463890 0.000001 -0.000000 -0.000000 -76.676995 0.407516 9.863997 101.953189 7.758169 2.568720 -6.365560 9.071398 -3.390737 -0.000000 -0.000000 -0.000000 -0.000000 -0.000000 -0.000000 0.000000 0.000001 -0.000000 -76.669898 4.887267 -9.957429 100.895090 -6.132371 -4.503987 -4.385316 -4.879120 7.894922 -0.000000 0.000002 0.000000 -0.000000 0.000002 0.000000 -0.000000 0.000002 -0.000001 3.746527 -0.237824 -2.145814 15.888772 -0.915193 -1.362173 15.876686 -0.878445 -1.607764 -10.848685 -0.168858 1.745590 -6.099594 1.760454 4.444511 0.000000 0.000000 0.000000 0.000000 0.000000 0.000000 0.000000 0.000000 0.000000 0.414762 7.794743 -10.800619 -25.764063 -41.544650 -77.047464 0.030943 -92.763552 0.030822 14.667623 -9.275110 28.941916 0.043061 3.210885 -2.318975 -7.059601 7.294306 13.761857 -0.000000 0.000004 -0.000001 -0.000013 0.000008 0.000013 0.000021 0.000005 -0.000060 0.000000 -0.000004 -0.000001 -0.000001 -0.001912 0.016001 -0.000009 0.001918 -0.016063 0.000001 -0.000000 -0.000001 -0.000001 0.000018 0.000020 0.000007 -0.000004 -0.000057 0.000001 -0.000004 -0.000004 -0.018086 4.054264 0.511066 -0.018082 -4.054253 -0.511117 -0.000001 0.000000 -0.000000 0.000000 0.000001 0.000004 0.794762 -1.260828 11.107742 -28.883477 32.133837 77.328690 0.000548 86.731388 -0.000569 -10.980421 24.663340 -6.937647 -21.141116 -11.985583 -22.103749 4.637204 -8.634134 -0.225407 0.000002 0.000001 0.000000 0.064600 0.947616 -7.800552 0.000013 0.000001 0.000047 -0.000001 0.000001 0.000000 0.064602 0.947610 -7.800563 0.000013 0.000011 0.000044 0.000000 -0.000000 -0.000000 0.064604 0.947617 -7.800545 0.000006 0.000005 0.000040 0.000001 0.000000 0.000004 0.064595 0.947613 -7.800558 0.000010 0.000005 0.000041 -0.000000 -0.000000 -0.000002 0.000000 -0.000001 -0.000001 0.000000 0.000000 -0.000000 0.000000 0.000000 -0.000000 0.000000 0.000000 -0.000000 0.000000 0.000000 -0.000000 0.000000 0.000000 0.000000 -0.000001 -0.000000 -0.000000 0.000000 0.000000 -0.000000 0.000000 0.000000 0.000000 -0.000001 -0.000000 -0.000000 0.000000 -0.000000 0.000000 0.000000 -0.000000 0.000000 0.000001 -0.000000 -0.000000 
-0.054357 46.762238 -31.663584 -18.276034 -2.133165 0.520740 -0.000002 -0.000000 0.000000 -76.692069 0.465664 9.825293 101.919092 7.773420 2.567771 -6.357291 8.972774 -3.369102 0.000000 0.000002 -0.000000 0.000000 0.000002 -0.000000 -0.000001 -0.000001 -0.000000 -76.678511 4.946950 -9.998927 100.908873 -6.107776 -4.510077 -4.397747 -4.934055 7.926394 -0.000000 0.000000 -0.000000 -0.000000 0.000000 -0.000000 -0.000000 -0.000001 -0.000000 3.660415 -0.280942 -2.259242 15.791355 -1.066849 -1.516260 15.783408 -1.033336 -1.759335 -10.566151 -0.269954 1.905492 -5.730699 1.522426 4.474411 0.000000 -0.000000 -0.000000 0.000000 -0.000000 -0.000000 0.000000 -0.000000 -0.000000 0.417477 7.493938 -10.544810 -25.907170 -36.697865 -77.215111 -0.017466 -92.299058 -0.017394 16.583225 -6.938266 27.156151 0.043062 3.210881 -2.318975 -7.059600 7.294303 13.761856 -0.000000 0.000001 0.000000 -0.000014 0.000004 0.000015 0.000022 0.000003 -0.000063 0.000000 -0.000004 -0.000001 0.000000 -0.001915 0.016000 -0.000008 0.001922 -0.016061 0.000001 -0.000001 0.000002 -0.000002 0.000013 0.000017 0.000005 0.000002 -0.000060 0.000002 -0.000001 -0.000002 -0.018088 4.054263 0.511065 -0.018082 -4.054246 -0.511113 -0.000000 -0.000000 0.000001 -0.000000 -0.000000 -0.000000 0.827349 -1.083875 11.418104 -28.908298 24.979703 76.704896 -0.000037 86.468733 0.000062 -15.270814 26.054634 -1.633463 -21.141116 -11.985581 -22.103747 4.637208 -8.634135 -0.225407 -0.000000 0.000001 0.000001 0.064598 0.947616 -7.800555 0.000013 0.000009 0.000050 0.000000 0.000002 0.000004 0.064601 0.947612 -7.800565 0.000014 0.000015 0.000044 0.000000 -0.000006 0.000001 0.064604 0.947615 -7.800546 0.000007 0.000006 0.000038 -0.000000 -0.000000 0.000000 0.064595 0.947613 -7.800555 0.000008 -0.000000 0.000040 -0.000000 -0.000001 0.000002 -0.000000 0.000000 -0.000003 0.000000 -0.000000 -0.000000 0.000000 -0.000000 -0.000000 0.000000 -0.000000 -0.000000 0.000000 -0.000000 -0.000000 0.000000 -0.000000 -0.000000 0.000000 -0.000001 -0.000000 0.000000 -0.000000 -0.000000 0.000000 -0.000000 -0.000000 0.000000 -0.000001 -0.000000 0.000000 -0.000000 0.000000 0.000000 -0.000000 0.000000 -0.000002 -0.000000 0.000000 
-0.054810 46.770676 -31.660999 -18.235777 -2.152929 0.521816 0.000000 -0.000000 -0.000000 -76.703263 0.417997 9.807137 101.912686 7.709991 2.571549 -6.357973 8.920249 -3.425811 -0.000000 -0.000000 0.000000 -0.000000 -0.000000 -0.000000 0.000001 0.000000 -0.000000 -76.710121 4.945061 -9.987442 100.892570 -6.108690 -4.512720 -4.397279 -4.902652 7.923247 0.000000 0.000000 -0.000000 0.000000 0.000000 -0.000000 0.000000 0.000001 -0.000000 3.579494 -0.305526 -2.328713 15.682577 -1.155858 -1.579018 15.676889 -1.124052 -1.821171 -10.369582 -0.316577 1.900495 -5.342747 1.290546 4.416675 -0.000000 -0.000000 -0.000000 -0.000000 -0.000000 -0.000000 -0.000000 -0.000000 -0.000000 0.415155 7.486951 -10.510579 -26.110042 -31.924926 -78.138457 -0.002231 -92.021643 -0.002252 15.826846 -5.808574 26.407506 0.043061 3.210882 -2.318975 -7.059600 7.294303 13.761859 -0.000000 -0.000000 -0.000003 -0.000013 0.000004 0.000014 0.000019 0.000001 -0.000065 -0.000001 0.000003 -0.000005 0.000001 -0.001913 0.016000 -0.000007 0.001917 -0.016063 0.000002 -0.000002 -0.000002 0.000000 0.000012 0.000019 0.000005 -0.000004 -0.000059 -0.000000 0.000000 -0.000000 -0.018090 4.054265 0.511067 -0.018084 -4.054245 -0.511113 -0.000002 0.000001 -0.000002 -0.000000 0.000003 0.000001 0.857576 -0.898723 11.682277 -29.613941 18.517452 77.032718 0.000201 85.984603 -0.000148 -19.538014 26.816923 1.286126 -21.141112 -11.985588 -22.103752 4.637205 -8.634134 -0.225409 -0.000002 0.000000 0.000002 0.064600 0.947616 -7.800555 0.000015 0.000009 0.000050 0.000002 0.000002 0.000002 0.064603 0.947607 -7.800565 0.000015 0.000011 0.000046 0.000003 0.000003 0.000000 0.064604 0.947614 -7.800552 0.000006 0.000003 0.000038 -0.000001 0.000003 -0.000001 0.064597 0.947612 -7.800558 0.000008 -0.000000 0.000040 -0.000001 0.000000 -0.000002 0.000001 -0.000001 -0.000000 0.000001 -0.000000 -0.000000 0.000001 -0.000000 -0.000000 0.000001 -0.000000 -0.000000 0.000001 -0.000000 -0.000000 0.000001 -0.000000 0.000000 0.000001 -0.000001 0.000000 0.000001 -0.000000 -0.000000 0.000001 -0.000000 0.000000 0.000001 -0.000001 0.000000 0.000000 -0.000000 -0.000000 0.000000 -0.000000 -0.000000 0.000000 -0.000000 -0.000000 
